<?xml version="1.0" encoding="utf-8"?>
<!-- Generator: Adobe Illustrator 22.1.0, SVG Export Plug-In . SVG Version: 6.00 Build 0)  -->
<svg version="1.1" id="Layer_1" xmlns="http://www.w3.org/2000/svg" xmlns:xlink="http://www.w3.org/1999/xlink" x="0px" y="0px"
	 viewBox="0 0 609.4 566.9" style="enable-background:new 0 0 609.4 566.9;" xml:space="preserve">
<style type="text/css">
	.st0{clip-path:url(#SVGID_2_);}
	.st1{fill:#FFFFFF;}
	.st2{fill:#C4E0FF;}
	.st3{opacity:0.3;fill:#07397A;enable-background:new    ;}
	.st4{fill:#303C3D;}
	.st5{clip-path:url(#SVGID_4_);}
	.st6{fill:#5D6063;}
	.st7{fill:#4B4E52;}
	.st8{fill:#6F7478;}
	.st9{fill:#3E474D;}
	.st10{clip-path:url(#SVGID_6_);}
	.st11{fill:#79A3C9;}
	.st12{opacity:0.1;enable-background:new    ;}
	.st13{opacity:0.1;fill:#FFFFFF;enable-background:new    ;}
	.st14{opacity:0.2;enable-background:new    ;}
	.st15{clip-path:url(#SVGID_8_);}
	.st16{opacity:0.2;fill:#FFFFFF;enable-background:new    ;}
	.st17{opacity:0.15;enable-background:new    ;}
	.st18{fill:#3E4E4F;}
	.st19{fill:#EB5C00;}
	.st20{clip-path:url(#SVGID_10_);}
	.st21{fill:#C74E00;}
	.st22{fill:#FFB663;}
	.st23{opacity:0.3;fill:#0C3D5E;enable-background:new    ;}
	.st24{clip-path:url(#SVGID_12_);}
	.st25{fill:#5E7578;}
	.st26{fill:#7D5B47;}
	.st27{fill:#473429;}
	.st28{clip-path:url(#SVGID_14_);}
	.st29{fill:#7A9A9C;}
	.st30{opacity:0.6;}
	.st31{fill:#222A2B;}
	.st32{clip-path:url(#SVGID_16_);}
	.st33{fill:#DB5600;}
	.st34{fill:#C44D00;}
	.st35{fill:#B53C00;}
	.st36{clip-path:url(#SVGID_18_);}
	.st37{fill:#5A7073;}
	.st38{fill:#48595C;}
	.st39{clip-path:url(#SVGID_20_);}
	.st40{fill:#4C5F61;}
	.st41{clip-path:url(#SVGID_22_);}
	.st42{fill:#506566;}
	.st43{clip-path:url(#SVGID_24_);}
	.st44{fill:#3A70A3;}
	.st45{fill:#22507D;}
	.st46{fill:#72A0CC;}
	.st47{clip-path:url(#SVGID_26_);}
	.st48{clip-path:url(#SVGID_28_);}
	.st49{fill:#FFAE57;}
	.st50{clip-path:url(#SVGID_30_);}
	.st51{fill:#E67A00;}
	.st52{clip-path:url(#SVGID_32_);}
	.st53{fill:#263030;}
	.st54{clip-path:url(#SVGID_34_);}
	.st55{clip-path:url(#SVGID_36_);}
	.st56{clip-path:url(#SVGID_38_);}
	.st57{fill:#9E552F;}
	.st58{fill:#854521;}
	.st59{fill:#CF8B68;}
	.st60{fill:#2A3636;}
	.st61{clip-path:url(#SVGID_40_);}
	.st62{fill:#405152;}
	.st63{opacity:0.6;enable-background:new    ;}
	.st64{clip-path:url(#SVGID_42_);}
	.st65{clip-path:url(#SVGID_44_);}
	.st66{fill:#465859;}
	.st67{clip-path:url(#SVGID_46_);}
	.st68{fill:#60787A;}
	.st69{fill:#9E4212;}
	.st70{fill:#717F87;}
	.st71{fill:#E3EEFF;}
	.st72{fill:#C7DEFF;}
	.st73{fill:#D47200;}
	.st74{clip-path:url(#SVGID_48_);}
	.st75{opacity:0.46;fill:#FFB663;enable-background:new    ;}
	.st76{fill:#85380D;}
	.st77{clip-path:url(#SVGID_50_);}
	.st78{clip-path:url(#SVGID_52_);}
	.st79{opacity:0.8;fill:#DEF4FF;enable-background:new    ;}
	
		.st80{opacity:0.3;fill:none;stroke:#000000;stroke-width:1.42;stroke-linecap:round;stroke-miterlimit:10;enable-background:new    ;}
	.st81{fill:#668082;}
</style>
<g id="Summit">
	<g>
		<defs>
			<path id="SVGID_1_" d="M594.3,561.1c0.9,0.5,1.3,1.6,0.9,2.5c-0.3,0.7-1.1,1.1-1.9,1.1l-573.6,0.7l72.8-52.6c3-2.2,5.6-5,7.4-8.3
				c1.9-3.5,5-8.1,8.9-10.8c6.9-4.8,17.2-4.8,17.2-4.8s-10.4,2.8,0.3-0.1s29-13.7,29-13.7s1.6-5.7,7.1-11.2s16.8-9.9,16.8-9.9
				l0.7-0.2l17.8-10.3c0.1-0.1-9.7,6.1,0.3-0.2s18.5-23.9,26.7-25.2s35.1,5.5,35.1,5.5s5.6-4.5,11.6-5.1s5.6,3.2,5.6,3.2l3.9,2.3
				c0,0-24.6-3.3,0.1,0.1s32.4,16,41.5,20.6s15.9-1.7,22.2,0.8c3.8,1.5,6.8,4.5,8.3,8.3c0.2,0.2,2.2,5.7,2.2,5.7
				c13.4,15.3,46.4,17,44.7,15.2h0.4l22.8,1.9c0.1,0-10.3,3.3,0.2,0s25.6,0.4,29.8,2.1s6.1,7.2,6.1,7.2s-4-4.9,0.6,0.5
				s40,22.4,40,22.4c8.7,4.1,11.4,16.2,11.4,16.2L594.3,561.1L594.3,561.1z"/>
		</defs>
		<clipPath id="SVGID_2_">
			<use xlink:href="#SVGID_1_"  style="overflow:visible;"/>
		</clipPath>
		<g class="st0">
			<path class="st1" d="M-10.9,388.5h624.2v193H-10.9V388.5z"/>
			<path class="st2" d="M565.9,482.3l-194.2-58.5l-23.9,9.2c-4.4-5.5-11.8-10.5-22.9-13.4c-9-2.4-54-0.1-62.4,5.2
				c-20.4,13-14.2,11.9-20.2,16.5c-13.5,10.4-24.2-4.2-33.9,9.6c-6.8,9.8,5.1,10.2,15.6,13.5s8.5,15.5,18.1,14.8
				c12.3-0.8,27.3,11.1,40.9,7c8.4-2.5,32,1.1,33.2,11.5c2.7,24.1,86.5,34.8,86.5,34.8l73.2,39.6l128.1-3.8L565.9,482.3L565.9,482.3
				z M217.8,476.9c-6,2.4-3.5,9.3-11.4,9.3s-13.9,10.9-1.5,10.9s30.6,1,26.6-6.5s-5.6-5.7-6.9-9
				C222.3,475.9,219.7,476.1,217.8,476.9L217.8,476.9z M103.9,497.9c-6,10.4,4.2,2.9,12.1,2.9s12,4.6,3.2,13.4
				c-13.7,13.7-38.7,9.6-33.8-8c2.3-8.2,10.2-11,11.5-14.2C99.3,486.2,102,497.2,103.9,497.9L103.9,497.9z"/>
		</g>
	</g>
	<path class="st3" d="M249.3,436.4c-11.5,16.2,23.6,14.8,36.8,26.5c3.3,3,7.3,8.3,14.5,10.7s20-1.8,24.3,2
		c16.9,14.7-3.5,23,18.2,29.3c15.2,4.4,25.3,13.1,39.9,20.3c8.1,4,14.7,8,24.3,8.5s35.6,6.2,51,13.1c29.9,13.4,87.9,5.1,119.7,7
		c-31.4-14.7-65.6-38-98.1-47.8c-11.1-3.3-20.3-0.9-33-3.3c-15.9-3.1-28.6-17.1-41.2-19.8c-18.1-3.9-29.9,6.6-49.3-6.4
		c-11.8-7.9-21.7-22.9-33.7-31.8C300.6,428.3,274.1,408.3,249.3,436.4L249.3,436.4z"/>
</g>
<g id="Rucksack">
	<path class="st4" d="M452.8,196.7c0,0,1.9,13.1,8.8,20l-5.8,5.8c0,0-9.3-10.9-9.3-19.3L452.8,196.7z"/>
	<g>
		<defs>
			<path id="SVGID_3_" d="M373.5,143.4c0,0-0.3-16.6,25.9-16.6s46.6,11.5,50.9,14.4c8.3,5.7,10.5,16.9,10.5,16.9s-1.7,13.2-3.5,36.9
				c-3.3,43.4-14.8,101.4-26.9,125.8c-5.3,10.7-9.5,16.1-19.2,18.5c-1.8,0.5-19.1,3-19.1,3l-56.5-40.9L373.5,143.4z"/>
		</defs>
		<clipPath id="SVGID_4_">
			<use xlink:href="#SVGID_3_"  style="overflow:visible;"/>
		</clipPath>
		<g class="st5">
			<path class="st6" d="M337.4,111.7h132.2v243H337.4V111.7z"/>
			<path class="st7" d="M436.9,143c0,0-7.6,90.8-16.2,128c-6.7,28.5-15.8,69.2-26.7,71c-10.9,1.8-83.9-36.2-83.9-36.2l29.3-184.7
				C339.4,121.1,405.7,121.1,436.9,143L436.9,143z"/>
			<path class="st8" d="M461.6,196.7c0-1.1-2.9-53.2-26-39.8c0,0-4.9-18-67.4-13.2c-0.4,0,20.9-24.6,20.9-24.6l71.3,5.3L461.6,196.7
				z"/>
			<path class="st9" d="M403.8,162.5c-4.6,30.7-12.9,41.3-12.9,41.3s13.3,1.6,21.6,19.2s-25.3,96.9-25.3,96.9l-25.6-97.6l2.3-75.5
				C363.9,146.8,408,134.4,403.8,162.5z"/>
		</g>
	</g>
</g>
<g id="Alpinist">
	<g>
		<defs>
			<path id="SVGID_5_" d="M363.4,198c0,0-29.3,1-64.8-17.1s-40.3-5.2-49.1-3.8c-8.8,1.4-29.8-4.7-29.8-4.7l-0.9,24.2
				c0,0,15,4.1,29-0.2c14-4.3,75.5,7.9,75.5,7.9l44,0.3C367.3,204.6,363.4,198,363.4,198z"/>
		</defs>
		<clipPath id="SVGID_6_">
			<use xlink:href="#SVGID_5_"  style="overflow:visible;"/>
		</clipPath>
		<g class="st10">
			<path class="st11" d="M209.3,168.9l158.3-24.8l9.7,62.1L219.1,231L209.3,168.9z"/>
			<path class="st12" d="M293.4,170.7c1.3,1-9,31.3-9,31.3l91.7,10.6L370,193L293.4,170.7L293.4,170.7z M264.7,166.2l-6.5,34.9
				l-19.6,0.7l4.9-31L264.7,166.2z"/>
			<path class="st13" d="M267.7,164.9l-5.8,37l11.3-1.8l5.7-33.5L267.7,164.9z"/>
			<path class="st14" d="M335.4,188.1c-2.2,8.2,1.7,16.1,9.4,24c0,0,32.8,1.5,33.8,0.3S371,192,371,192L335.4,188.1L335.4,188.1z"/>
			<path class="st13" d="M216.1,167.8l11.6,3.3l-1.1,31.7l-12.6-4L216.1,167.8z"/>
		</g>
	</g>
	<g>
		<defs>
			<path id="SVGID_7_" d="M355.5,198.6c0,0-20.8,1.8-36.6-2.1c-11.7-2.9-35.7-9.1-56-8.5c-20.3,0.6-21.8,12.6-37.7,18.7
				c-10.6,3.9-21.6,6.8-32.8,8.5l8.9,15.4c10-1.6,19.7-4.7,28.7-9.3c13.7-7.3,22.5-19,35.3-17c41.6,6.7,89.5,10.7,90.8,8.8
				L355.5,198.6z"/>
		</defs>
		<clipPath id="SVGID_8_">
			<use xlink:href="#SVGID_7_"  style="overflow:visible;"/>
		</clipPath>
		<g class="st15">
			<path class="st11" d="M180.7,187l182.9-25.9l8.9,62.8l-182.9,25.9L180.7,187z"/>
			<path class="st12" d="M247.5,187.3l7.3,28.9c0,0-25.6,14.8-25.8,13.6s-8.1-27.9-8.1-27.9S247.5,187.3,247.5,187.3z M307.6,190.8
				l0.3,26.7c0,0,53.9,4.3,54.7,3.2s-2.2-26.3-2.2-26.3L307.6,190.8z"/>
			<path class="st16" d="M256.3,184.5l4.6,27.6l10.7-1.4l-3.6-26.2H256.3z"/>
			<path class="st17" d="M333.2,195.7c-2.5,8-1.3,15.8,3.2,23.3l26.4,2.7l-1.7-28.3L333.2,195.7z"/>
		</g>
	</g>
	<path class="st18" d="M262.9,237.5c0,0-5,13.9-10.3,18.5c-5.3,4.6-10.9-17-10.9-19.6s-4.7-16.7,3.5-23c6.1-4.7,11.1,11.9,14.2,20.2
		C260.1,235.3,261.3,236.7,262.9,237.5L262.9,237.5z"/>
	<path class="st19" d="M259.7,233.9c0,0,23.5,20,45.7,16.6c26.8-4,31.8-24.3,34.9-29.4c0.2-0.3,20.1-0.4,20,0l-20,28.3
		c0,0-5.1,17.5-35,20.1s-54.9-12.7-54.9-12.7C259.7,249.9,262,242.1,259.7,233.9L259.7,233.9z"/>
	<g>
		<defs>
			<path id="SVGID_9_" d="M259.7,233.9c0,0,23.5,20,45.7,16.6c26.8-4,31.8-24.3,34.9-29.4c0.2-0.3,20.1-0.4,20,0l-20,28.3
				c0,0-5.1,17.5-35,20.1s-54.9-12.7-54.9-12.7C259.7,249.9,262,242.1,259.7,233.9L259.7,233.9z"/>
		</defs>
		<clipPath id="SVGID_10_">
			<use xlink:href="#SVGID_9_"  style="overflow:visible;"/>
		</clipPath>
		<g class="st20">
			<path class="st19" d="M240.6,202.6h129.6v73.5H240.6V202.6z"/>
			<path class="st21" d="M253.1,243.5c0,0,25.1,19.6,56.3,17.1s45.8-21.7,50.9-24.6l-4.3,32.4l-112.6,10.9L253.1,243.5L253.1,243.5z
				"/>
			<path class="st22" d="M360.3,214.9c0,0-31,38.2-61.3,35.9l58.9-38.4L360.3,214.9L360.3,214.9z"/>
		</g>
	</g>
	<path class="st23" d="M253.8,218.6l-5.6,1.7l1.8,21.5c1.8-0.9,3.9-0.9,5.7,0.1L253.8,218.6z"/>
	<g>
		<defs>
			<path id="SVGID_11_" d="M256.9,207.4c0,0,4.8-4.4,4-7.6s-4.2-5.3-7.4-2.6c-3.2,2.7-3,5.3-3,5.3S251.5,207.8,256.9,207.4z"/>
		</defs>
		<clipPath id="SVGID_12_">
			<use xlink:href="#SVGID_11_"  style="overflow:visible;"/>
		</clipPath>
		<g class="st24">
			<path class="st18" d="M245.8,198.1l18.1-4.8L268,209l-18.1,4.8L245.8,198.1z"/>
			<path class="st25" d="M256.6,208.3c1.2-1.8,1.8-3.9,1.8-6.1c-0.2-3.3-4.1-6-4.1-6l7.7-3.3l5.3,10.3l-9.1,7.4L256.6,208.3
				L256.6,208.3z"/>
		</g>
	</g>
	<path class="st26" d="M268.5,436.1c-1.5,0-2.7-1.1-2.8-2.6l-26.8-327.9c-0.1-1.6,1-3,2.6-3.1s3,1,3.1,2.6L271.4,433
		c0.2,1.5-0.9,2.9-2.5,3.1H268.5L268.5,436.1z"/>
	<path class="st27" d="M254.6,227.9l-5.6,0.7l0.8,9.7c1.1-0.7,3.8-2.3,5.5-1.9L254.6,227.9z"/>
	<path class="st27" d="M244.5,105.1c-0.1-1.5-1.4-2.7-3-2.6c-0.5,0-0.9,0.2-1.3,0.4c0.8,0.5,1.3,1.3,1.4,2.2l26.8,328
		c0.1,1.1-0.4,2.2-1.4,2.7c0.5,0.3,1,0.4,1.5,0.4h0.2c1.5-0.1,2.7-1.4,2.6-3v-0.1L244.5,105.1L244.5,105.1z"/>
	<g>
		<defs>
			<path id="SVGID_13_" d="M249.8,203.4c7.8,0,10.9,4.9,11.6,7.6s2.7,11.2,0.3,17c-0.6,1.3-2,2.1-3.4,2l-2.1-0.3
				c-1.4-0.2-3.6-1.1-4.7-0.2s-4.3,3.1-5.1,6.4s0.7,13.7,1.9,16.6c0.5,1.4,1.3,2.7,2.3,3.7c-2.2,4.3-14.1-25.5-9.9-41.4
				C242.9,206,247.9,203.4,249.8,203.4L249.8,203.4z"/>
		</defs>
		<clipPath id="SVGID_14_">
			<use xlink:href="#SVGID_13_"  style="overflow:visible;"/>
		</clipPath>
		<g class="st28">
			<path class="st25" d="M230.3,195.1h40.4v64.8h-40.4V195.1z"/>
			<path class="st29" d="M249.9,202.9c0,0-9.3,6-8.2,20.6c0.7,10.1-1.9,22.5-1.9,22.5l-5.7,6.8l-6.2-42.4L249.9,202.9L249.9,202.9z"
				/>
			<path class="st18" d="M250.1,201.3c5,9.5,3.8,22.2,1.5,28.5c0,0,12.1,5.7,12.1,4.7s0.6-27.2,0.6-27.2L250.1,201.3L250.1,201.3z"
				/>
			<g class="st30">
				<path class="st31" d="M247.1,224.4l0.5-0.7c0.5-0.6,1.1-1,1.7-1.4l1.4-0.6l0.8-0.2h2.7l1.8,0.5c1.2,0.4,2.2,1.1,3.1,1.9
					c0.8,0.7,1.4,1.6,1.9,2.5c0.4,0.6,0.7,1.3,0.9,2l0.2,0.8c0,0.2-0.2,0.4-0.5,0.3c-0.1,0-0.2-0.1-0.2-0.1l-0.2-0.7
					c-0.2-0.7-0.5-1.3-0.9-1.9c-0.5-0.8-1.1-1.6-1.8-2.3c-0.8-0.8-1.8-1.4-2.8-1.8l-1.7-0.5h-1.6l-1.5,0.2l-1.3,0.5
					c-0.6,0.3-1.2,0.7-1.7,1.1l-0.6,0.6h-0.2c-0.1,0-0.1,0-0.1-0.1S247.1,224.4,247.1,224.4L247.1,224.4z"/>
			</g>
			<g class="st30">
				<path class="st31" d="M248,217.6l0.6-0.6c0.6-0.5,1.2-0.9,1.9-1.2l1.4-0.5l0.8-0.2h2.7l1.8,0.5c1.2,0.4,2.3,1,3.2,1.9
					c0.8,0.7,1.5,1.6,2,2.5c0.4,0.7,0.7,1.4,0.9,2.1l0.2,0.8c0,0.2-0.2,0.4-0.5,0.3c-0.1,0-0.2-0.1-0.2-0.1l-0.2-0.8
					c-0.2-0.7-0.5-1.3-0.9-1.9c-0.5-0.8-1.1-1.6-1.8-2.3c-0.8-0.8-1.8-1.4-2.9-1.8l-1.7-0.4h-3.2l-1.4,0.4c-0.7,0.3-1.3,0.6-1.9,1
					l-0.6,0.5H248c-0.1,0-0.1,0-0.1-0.1C247.9,217.6,248,217.6,248,217.6L248,217.6z"/>
			</g>
			<g class="st30">
				<path class="st31" d="M248.5,210.9l0.7-0.5c0.6-0.4,1.3-0.7,2-0.9c1-0.3,2.1-0.4,3.1-0.3l1.8,0.2l1.8,0.5
					c1.2,0.4,2.2,1.1,3.1,1.9c0.8,0.7,1.4,1.6,1.9,2.5c0.4,0.6,0.7,1.3,0.9,2l0.2,0.8c0,0.2-0.2,0.4-0.5,0.3c-0.1,0-0.2-0.1-0.2-0.1
					l-0.2-0.7c-0.2-0.7-0.5-1.3-0.9-1.9c-0.5-0.8-1.1-1.6-1.8-2.3c-0.8-0.8-1.8-1.4-2.8-1.8l-1.7-0.5l-1.7-0.2h-1.6l-1.4,0.2
					c-0.7,0.2-1.4,0.4-2,0.7l-0.7,0.4h-0.2c-0.1-0.1-0.1-0.2,0-0.3S248.5,210.8,248.5,210.9L248.5,210.9z"/>
			</g>
		</g>
	</g>
	<g>
		<defs>
			<path id="SVGID_15_" d="M245.1,113.8c0,0-37.8-10.8-62.2-0.7s-37.2,20.3-60.6,22.6l6,74.3c0,0,43.5-4.3,64.1-18.2
				c23.4-15.7,58.6-8.1,58.6-8.1S245.1,113.8,245.1,113.8z"/>
		</defs>
		<clipPath id="SVGID_16_">
			<use xlink:href="#SVGID_15_"  style="overflow:visible;"/>
		</clipPath>
		<g class="st32">
			<path class="st19" d="M103.7,84.8h157.9v138.7H103.7V84.8z"/>
			<path class="st33" d="M210.7,105.7l7.9,82.5l42.3-2.8l-6.2-73l-20.8-5.5L210.7,105.7z M92.3,132.6l7.9,82.6l42.3-2.8l-7.3-84.9
				l-19.7,6.4L92.3,132.6z"/>
			<path class="st34" d="M242.1,110.2l6.1,76.4h7.4l-7.4-76.4L242.1,110.2z"/>
		</g>
	</g>
	<path class="st35" d="M330.1,306.5c0,0,15.3,26.3,34.3,33.6c19,7.3,28.3,6.3,28.3,6.3S374.1,303.5,330.1,306.5z"/>
	<g>
		<defs>
			<path id="SVGID_17_" d="M372.3,505.2c0.8,12.3,5.4,21.7,16,21.1c10.6-0.6,14-9.7,14.4-22c0.4-12.3-6.4-26-8.1-27.8l-20.6,5
				C372.5,489.3,371.9,497.3,372.3,505.2L372.3,505.2z"/>
		</defs>
		<clipPath id="SVGID_18_">
			<use xlink:href="#SVGID_17_"  style="overflow:visible;"/>
		</clipPath>
		<g class="st36">
			<path class="st37" d="M368,473.8h38.6v55.5H368V473.8z"/>
			<path class="st38" d="M383.6,475.3c0,0-6.2,49.3,7.8,51.9c0,0,23.4,1.5,10-51.7L383.6,475.3L383.6,475.3z"/>
		</g>
	</g>
	<g>
		<defs>
			<path id="SVGID_19_" d="M375.5,481c-0.2-0.2-1.3,22.5,1.7,32.7c3,10.2,8.5,9.6,11.9,9.2c3.4-0.4,10.2-5.2,10.2-16
				c0-10.8-2.9-26-4.6-28.4L375.5,481L375.5,481z"/>
		</defs>
		<clipPath id="SVGID_20_">
			<use xlink:href="#SVGID_19_"  style="overflow:visible;"/>
		</clipPath>
		<g class="st39">
			<path class="st4" d="M371,468.4h31.7V527H371V468.4z"/>
			<path class="st40" d="M377.5,478c0,0-2.6,21.4,0.2,32.4s6.2,11,9.4,11s12.9-12.2-4.2-12.2C380,509.1,379.8,485.7,377.5,478
				L377.5,478z"/>
		</g>
	</g>
	<g>
		<defs>
			<path id="SVGID_21_" d="M367.9,458.8l4,27c0,0,4.1,3.9,13,3.1s12.3-4.2,13.1-6s-3-28.7-3-28.7L367.9,458.8z"/>
		</defs>
		<clipPath id="SVGID_22_">
			<use xlink:href="#SVGID_21_"  style="overflow:visible;"/>
		</clipPath>
		<g class="st41">
			<path class="st25" d="M361.3,450.4h45.9v45.9h-45.9V450.4z"/>
			<path class="st42" d="M377.1,452.7l6,47c0,0,25.3-9.6,25.3-10.6s-5.3-38.3-5.3-38.3L377.1,452.7z"/>
		</g>
	</g>
	<g>
		<defs>
			<path id="SVGID_23_" d="M359.4,311.4c-1.9,0-53.9-12.7-69,6.3c-16.5,20.9-14.7,64.2-11.5,69.9s2,7.2,2,7.2s13,4,24.5,0
				c4-1.5,4.4-9.6,4.1-18.3c-0.4-12.6-4.5-29.2,1.5-37.6c13.9-19.3,50.9,3.4,67.6,3.4L359.4,311.4z"/>
		</defs>
		<clipPath id="SVGID_24_">
			<use xlink:href="#SVGID_23_"  style="overflow:visible;"/>
		</clipPath>
		<g class="st43">
			<path class="st44" d="M271.3,297H383v117.9H271.3V297z"/>
			<path class="st45" d="M370.5,318.1c0,0-52.9-7.7-66.2,9.3s-7.1,42.7-7.1,47.3s3.7,14.7-10.2,17.7c-5.7,1.2-6.9-2.2-6.9-2.2
				l-3.3,18.8l39.9-8.8l26.3-55l44.9-16.7L370.5,318.1z"/>
			<path class="st46" d="M327.7,306.8c0-0.2-17.2-1-29.2,8.5s-18,35-17.4,67.1c0,3.5-2.4,6.9-3.4,3.3
				C274.5,374.7,255.8,293,327.7,306.8L327.7,306.8z"/>
			<path class="st45" d="M329.9,306.8c0,0,21.8,4.6,27.3,22.2c0,0,0.7-18-0.1-21.4S337.4,304.8,329.9,306.8z"/>
		</g>
	</g>
	<g>
		<defs>
			<path id="SVGID_25_" d="M356.6,310.7c0,0,0.8,29.3,3.6,63.5c2.6,32.5,4.5,66,4.5,66c-0.9,3.7-1.4,7.5-1.4,11.3
				c0,6,5.7,17,18.1,14.9s14.2-6,14.2-6s2.2-4.3,2.2-12.1s-4.3-19.9-4.3-24.8s-2.5-89.7-4.3-95L356.6,310.7L356.6,310.7z"/>
		</defs>
		<clipPath id="SVGID_26_">
			<use xlink:href="#SVGID_25_"  style="overflow:visible;"/>
		</clipPath>
		<g class="st47">
			<path class="st44" d="M349.6,296.1h59.7v182.8h-59.7V296.1z"/>
			<path class="st45" d="M377.1,312.9l1.4,29.3l4.5,93.9c0,0,8.5,9.4,8.5,16.2s-9.3,11.3-18.8,11.3s-19-5.6-19-5.6l21,18.7
				l27.2-12.3l-5.6-145.2L377.1,312.9L377.1,312.9z"/>
		</g>
	</g>
	<g>
		<defs>
			<path id="SVGID_27_" d="M402.4,221.6c-8.7,38.5-11.6,79.9-9.7,124.8c-21.1-29.4-54.5-39.9-62.7-39.9c-8.9-29.9,2.7-68.2,5.1-79
				c1.3-6.3,6-11.3,12.2-13L402.4,221.6L402.4,221.6z"/>
		</defs>
		<clipPath id="SVGID_28_">
			<use xlink:href="#SVGID_27_"  style="overflow:visible;"/>
		</clipPath>
		<g class="st48">
			<path class="st19" d="M322.7,194.1h76V345h-76V194.1z"/>
			<path class="st21" d="M371,212.2c0,0-25.6,55-12.8,106.4s42.5,43.4,42.5,43.4l6.1-148.4C406.8,213.6,371,212.2,371,212.2z"/>
			<path class="st49" d="M357,214.5c0,0-21.3,32-23.9,49.9s-3.2,39.7-0.6,49.4l-18.5-6l14.1-98.4C328.1,209.4,357,214.5,357,214.5z"
				/>
		</g>
	</g>
	<g>
		<defs>
			<path id="SVGID_29_" d="M397.8,221c0,0,65.7,12,59.1,48.7s-62.2,49.5-62.2,49.5l-2.4-19.1c0,0,40.2-10.6,43.1-27.7
				c4.2-24.9-41-31.3-41-31.3L397.8,221L397.8,221z"/>
		</defs>
		<clipPath id="SVGID_30_">
			<use xlink:href="#SVGID_29_"  style="overflow:visible;"/>
		</clipPath>
		<g class="st50">
			<path class="st19" d="M376.3,206.9H467v120.5h-90.7V206.9z"/>
			<path class="st21" d="M393.1,232.2c11.2,2,21.9,5.8,31.8,11.4c15.5,9,13.9,26,8.9,31s-47-21.3-47-21.3L393.1,232.2L393.1,232.2z"
				/>
			<path class="st51" d="M387.5,308.7c1.5-1.5,48.5-6.9,63.1-31.8c7.6-13,4.8-22.1,4.8-29.6c0,0,10.4,33.6-1.3,45.4
				s-69.3,35.8-69.3,35.8L387.5,308.7L387.5,308.7z"/>
		</g>
	</g>
	<g>
		<defs>
			<path id="SVGID_31_" d="M413.6,215c0,0-0.3,1.6-0.6,1.7c-3.4,1.5-16.2,3.3-17.8,16.7c-1.9,15.3,8.1,33.8,12,38.6
				c0.1,0.5,0.2,1,0.2,1.5l-10,7.4c0,0-18.4-18.8-18.4-41.8s18.5-26.5,18.5-26.5L413.6,215z"/>
		</defs>
		<clipPath id="SVGID_32_">
			<use xlink:href="#SVGID_31_"  style="overflow:visible;"/>
		</clipPath>
		<g class="st52">
			<path class="st4" d="M373.5,209.1h46.6v75.4h-46.6V209.1z"/>
			<path class="st53" d="M398.4,238.6c0,0-11.7-4.3-21.4,8.7c0,0,15.2,34.7,20,39.4l16.6-14.4L398.4,238.6L398.4,238.6z"/>
		</g>
	</g>
	<path class="st4" d="M353.6,214.2c0,0-22.7,31-26.7,60c0.6-8.6,1.7-17.1,3.2-25.6c0,0,11.8-32.7,14.2-33.5S353.6,214.2,353.6,214.2
		z"/>
	<g>
		<defs>
			<path id="SVGID_33_" d="M348.1,213.5l-10.3,2.8c0,0-4.4,0.9-0.5,4.8c3.9,3.9,19.8,15.4,21.1,18.4s2.3,5.5,1.8,7.3
				s13.2-23.4,13.2-23.4L348.1,213.5L348.1,213.5z"/>
		</defs>
		<clipPath id="SVGID_34_">
			<use xlink:href="#SVGID_33_"  style="overflow:visible;"/>
		</clipPath>
		<g class="st54">
			<path class="st19" d="M330.7,206.9h45.6v44.3h-45.6V206.9z"/>
			<path class="st22" d="M343.4,214.5c0,0-6.1,1.8-5.2,4.7s15.7,14.2,18,16.5c2.6,2.7,4.1,6.3,4.1,10c0,4.2-29.8-24.4-29.8-24.4
				S335,213.8,343.4,214.5L343.4,214.5z"/>
		</g>
	</g>
	<path class="st51" d="M355.2,209.9h-13.9c0,0-6.7-0.5-2.6,3.5s18.3,19,19.9,21.9s3.9,6.3,1.7,11.3s12.9-23.4,13.2-23.4L355.2,209.9
		L355.2,209.9z"/>
	<g>
		<g>
			<defs>
				<path id="SVGID_35_" d="M355.2,209.9h-13.9c0,0-6.7-0.5-2.6,3.5s18.3,19,19.9,21.9s3.9,6.3,1.7,11.3s12.9-23.4,13.2-23.4
					L355.2,209.9L355.2,209.9z"/>
			</defs>
			<clipPath id="SVGID_36_">
				<use xlink:href="#SVGID_35_"  style="overflow:visible;"/>
			</clipPath>
			<g class="st55">
				<path class="st19" d="M333.7,204.4h40.4v42.3h-40.4V204.4z"/>
				<path class="st22" d="M348.4,210.6c0,0-9-1.3-8,1.5s24.8,25.3,20.7,32.7c0,0-27.8-33.7-28.5-34.1c-0.7-0.4,11.6-4.2,11.6-3.7
					S348.4,210.6,348.4,210.6z"/>
			</g>
		</g>
	</g>
	<g>
		<g>
			<defs>
				<path id="SVGID_37_" d="M351.7,173.2l-6.3-0.8c-0.8-0.1-1.3-0.8-1.2-1.6v-0.1c0.8-4.9,3.7-20.6,7.6-28.5
					c4.7-9.5,13.4-18.2,28.3-14.9c14.9,3.3,18.9,21.3,18.9,26c0,4.7-8,22.9-12.3,33.1s-4.3,15.9-4.3,15.9s-16.5,3.1-16.5,1.9
					s1.2-7.1,1.2-7.1S346.1,197.1,351.7,173.2z"/>
			</defs>
			<clipPath id="SVGID_38_">
				<use xlink:href="#SVGID_37_"  style="overflow:visible;"/>
			</clipPath>
			<g class="st56">
				<path class="st57" d="M340.7,113.7h66.7v104.9h-66.7V113.7z"/>
				<path class="st58" d="M385.6,124.1c0,0,6.7,20.1-5.2,54.7c-4.6,13.3-13.4,18.3-13.4,18.3l-0.5,12.5l18.3,0.4l25.1-53.1l-6-34.5
					L385.6,124.1L385.6,124.1z"/>
				<path class="st59" d="M361.8,128.5c0,0-12.2,20.4-14.6,42.7c-0.3,3.2,7.3,1.4,7.3,2.3c0,0.9-5.1,11.8,2.2,22.1
					c0,0-22.9-5.3-23.3-5.7s11.8-57.5,11.8-57.5L361.8,128.5z"/>
				<path class="st23" d="M349.3,177.8c0,0,2.1-4.3,10.7-6.2s15.4,6.1,21.2,6.1s6-10.9,6.3-15.6s1.5-9.3,6-11.9s9.5,11.3,9.5,11.3
					s-7.5-8.3-10.4-4.3s1.6,19.5-7.4,30.2c-4.7,5.2-11.1,8.6-18,9.7c-6.1,1-14.1-0.4-14.1-0.4s-5.1-12.6-5.6-13.2
					C347,182.9,349.3,177.8,349.3,177.8z"/>
			</g>
		</g>
	</g>
	<path class="st60" d="M393.1,293.6c-0.7-0.7-8.1-10.5-9.4-14.3c-1.3-3.8-5.1,2.3-5.1,4.6c0,2.3,1.6,12.4,3.6,13.5
		S393.1,293.6,393.1,293.6z"/>
	<g>
		<g>
			<defs>
				<path id="SVGID_39_" d="M395.7,324c0,0-9.1-14.4-11.8-15.9s-8.8,0.5-11.9,2.3c-3.1,1.8-8.6,3.9-10.8,2.3
					c-2.2-1.6-5-8.8-1.3-12.5c3.7-3.7,6.7-6.7,10.7-9c6.7-3.9,11.1-3.3,14.6-2c3.5,1.3,12.9,5.6,12.9,5.6S410.6,310,395.7,324
					L395.7,324z"/>
			</defs>
			<clipPath id="SVGID_40_">
				<use xlink:href="#SVGID_39_"  style="overflow:visible;"/>
			</clipPath>
			<g class="st61">
				<path class="st4" d="M348.6,278.1h59.2v53.3h-59.2V278.1z"/>
				<path class="st62" d="M370,287c-3.2,4.8-4.3,10.7-3.1,16.4c2.1,9.3,14.1,10.9,14.1,10.9l-23.1,8.1l-8-27.8L370,287L370,287z"/>
				<path class="st60" d="M377.9,274.2c0,0,17.6,22.5,7,34.7c-14.8,17,18.2,20.9,18.2,20.9l7.5-30.4L377.9,274.2z"/>
				<path class="st63" d="M357.4,306.7c0.8-1.2,1.7-2.3,2.7-3.4c2.1-2.3,4.5-4.4,7-6.3l1.1-0.7l1.1-0.7l1.1-0.6l1.1-0.5
					c1.4-0.5,2.8-0.9,4.3-1.1l3.1-0.3h1.2c0.1,0,0.2,0.1,0.2,0.2l-0.2,0.2h-1.2l-3,0.4l-2,0.5l-2.2,0.7l-2.2,1l-1.1,0.7l-1,0.7
					c-2.5,1.9-4.8,4-6.9,6.3l-2,2.3l-0.7,0.9c-0.1,0.1-0.3,0.2-0.5,0.1C357.3,307,357.3,306.8,357.4,306.7L357.4,306.7z"/>
				<path class="st63" d="M358.1,310.5c0.8-1.2,1.7-2.3,2.6-3.4c2.1-2.4,4.4-4.4,7-6.2l2.2-1.3l2.2-1.1c1.3-0.5,2.7-1,4.1-1.3
					c1.4-0.4,2.8-0.6,4.2-0.7l0.2,0.2l-0.2,0.2c-1.4,0.2-2.8,0.5-4.1,0.9c-1.4,0.4-2.7,0.8-4,1.4l-2.1,1.1l-2.1,1.3
					c-2.5,1.7-4.8,3.8-6.8,6.1c-0.9,1-1.8,2.1-2.6,3.3c-0.1,0.1-0.3,0.2-0.5,0.1C358,311,358,310.7,358.1,310.5L358.1,310.5z
					 M360,314.1c0.6-1.2,1.3-2.4,2.2-3.5c0.8-1.1,1.8-2.1,2.8-3.1l1.8-1.5l2.1-1.3l2.2-1.1l2.2-0.8l4-1.1c1.3-0.3,2.7-0.5,4-0.6
					l0.2,0.2c0,0.1,0,0.2-0.1,0.2l-4,0.8c-2.9,0.7-5.6,1.7-8.2,3.1l-2,1.3l-1.8,1.5c-1.7,1.6-3.2,3.4-4.4,5.4l-0.5,1
					c-0.2,0.1-0.4,0-0.5-0.1c0,0,0-0.1-0.1-0.2L360,314.1L360,314.1z"/>
			</g>
		</g>
	</g>
	<g>
		<g>
			<defs>
				<path id="SVGID_41_" d="M349.4,212.2c-1.1-0.4,13.3,13.8,12.7,28.9c0,0,6.8-13.5,11.1-17.8c4.2-3.9,8.7-7.6,13.3-11.1
					C386.5,212.2,355.7,214.4,349.4,212.2z"/>
			</defs>
			<clipPath id="SVGID_42_">
				<use xlink:href="#SVGID_41_"  style="overflow:visible;"/>
			</clipPath>
			<g class="st64">
				<path class="st11" d="M344.1,206.6h44.1V245h-44.1V206.6z"/>
				<path class="st12" d="M385,215.6l-24.7,5.5c0,0,4.1,3.4,2,22.2c0,0-21.3-7.4-21.1-7.5s5.6-25.3,5.6-25.3l43-1.2L385,215.6z"/>
			</g>
		</g>
	</g>
	<ellipse cx="351.5" cy="152" rx="1.1" ry="2.6"/>
	<g>
		<g>
			<defs>
				<path id="SVGID_43_" d="M352.4,141c0,0,14.9-5.6,31,4.6c10.5,6.7,13,18.7,13,18.7s12.1-28.7-7.3-38.7
					C379.4,120.6,359.9,122.1,352.4,141z"/>
			</defs>
			<clipPath id="SVGID_44_">
				<use xlink:href="#SVGID_43_"  style="overflow:visible;"/>
			</clipPath>
			<g class="st65">
				<path class="st25" d="M349.9,117.4h54.4v50.1h-54.4V117.4z"/>
				<path class="st66" d="M384.9,123.8c2,4.5,3.2,25.7-0.1,36.7c-0.1,0.4,12.8,9.1,12.8,8.8c0-0.3,8-36.7,8-36.7
					S384.9,123.8,384.9,123.8z"/>
			</g>
		</g>
	</g>
	<ellipse cx="368.2" cy="153.2" rx="1.6" ry="3.1"/>
	<path d="M363.4,182.6h1.8l1.8-0.2l1.9-0.5l1-0.3l0.9-0.4l0.8-0.4l0.7-0.4l0.6-0.4l0.5-0.3l0.4-0.2c0.1-0.1,0.3,0,0.4,0.1v0.3
		l-0.3,0.4l-0.4,0.5l-0.5,0.6l-0.7,0.6l-0.9,0.6l-1,0.5l-1.1,0.4c-0.7,0.2-1.5,0.4-2.2,0.4h-2c-0.6-0.1-1.2-0.2-1.8-0.5
		c-0.1,0-0.2-0.2-0.1-0.3L363.4,182.6L363.4,182.6z"/>
	<path class="st4" d="M249.7,441.1l59.5-10L309,436c0,0-1.7,5.4-6.3,7s-13.6,1.1-17,1.7s-10.8,3.3-15.5,4.4
		c-13.5,3-19.5-1.9-20.2-3.6L249.7,441.1z"/>
	<path class="st38" d="M251.8,437.7c0,0-2.9,1.5-1.8,4.1s6.7,5.5,15.4,4.3s17.3-4.7,21.1-5.1s10,0.3,15-1.6s7-5,7.6-7.7
		s-3.4-4.4-3.4-4.4L251.8,437.7L251.8,437.7z"/>
	<path class="st37" d="M254.5,442.5c-1.1-2.7,1.8-4.1,1.8-4.1l51.3-9.9c-0.6-0.5-1.2-0.9-1.9-1.2l-53.9,10.4c0,0-2.9,1.5-1.8,4.1
		s4.5,4.3,10.2,4.6C257.1,445.5,255.2,444,254.5,442.5L254.5,442.5z"/>
	<g>
		<g>
			<defs>
				<path id="SVGID_45_" d="M283.3,414.6c0,0,1.9,8.6-16.2,12.7c-16.2,3.7-16.9,11.8-14.6,14.1s8.3,5.5,22.1,1.2
					c9.9-3.1,11.8-3.3,11.8-3.3s9.6,0.7,14.7-1.8c6.8-3.3,6.9-9.4,5.3-13.3s-4-6.5-4-10.2"/>
			</defs>
			<clipPath id="SVGID_46_">
				<use xlink:href="#SVGID_45_"  style="overflow:visible;"/>
			</clipPath>
			<g class="st67">
				<path class="st4" d="M249.3,409.7h65.2v42.2h-65.2V409.7z"/>
				<path class="st68" d="M281.7,417.2c0,0,0.8,5.8-5.4,9.4s-18.7,5.7-14,8.6s3.8,5.1-0.5,5.1c-7,0-10.1-1.6-9.8-3.7
					c0.2-2,14.3-18.2,14.3-18.2l14.9-0.9"/>
			</g>
		</g>
	</g>
	<path d="M352.1,143.8c0.1-0.3,0.3-0.5,0.5-0.7l0.7-0.5l0.9-0.3c0.6-0.2,1.1-0.2,1.7-0.2h0.8c0.1,0,0.2,0.1,0.2,0.2v0.1l-0.2,0.2
		l-0.7,0.2l-1.6,0.3l-1.5,0.5l-0.6,0.3L352.1,143.8C352.1,143.9,352.1,143.8,352.1,143.8L352.1,143.8z M377,147
		c-0.3-0.5-0.6-1-1-1.4l-1.2-1.3c-0.5-0.5-1-0.9-1.6-1.2l-0.9-0.5l-0.9-0.4l-0.9-0.3l-0.8-0.2H368c-0.1,0-0.2-0.1-0.2-0.2l0.2-0.2
		h2.7l1,0.3l1,0.4l1,0.5c1.1,0.7,2.1,1.7,2.8,2.8l0.6,1.2l0.2,0.5c0,0.1,0,0.2-0.1,0.2L377,147L377,147z"/>
	<path class="st4" d="M353.1,139.2c10.1-4.2,32.5-2.9,45.5,16.2l0.8-4.3c-6-12.6-26.1-22.5-44.7-16.6L353.1,139.2z"/>
	<path class="st69" d="M392.6,170c3.7,0.2,5.9-5.6,5.9-9.9s-4.6-4.4-5.4-3c-0.8,1.4,0.8,3.4-0.1,6
		C392.1,165.7,391.6,169.9,392.6,170z"/>
	<path class="st70" d="M350.1,135.2l1,2.4v0.3c0.9,1.5,4.4,1.5,8-0.1c3.6-1.6,5.8-3.8,5.7-5.4l-1.4-3.4L350.1,135.2z M368.9,130.7
		l-1,3.8c0.1,1.8,3,3.8,6.9,4.8s7.7,0.4,8.4-1.3v-0.3l0.7-2.8L368.9,130.7L368.9,130.7z"/>
	
		<ellipse transform="matrix(0.9225 -0.3859 0.3859 0.9225 -23.82 147.9644)" class="st71" cx="356.6" cy="133.3" rx="7.4" ry="3.3"/>
	
		<ellipse transform="matrix(0.2368 -0.9716 0.9716 0.2368 157.9512 466.436)" class="st72" cx="375.9" cy="132.7" rx="3.5" ry="7.9"/>
	<path class="st73" d="M393,211.9c-13.3,1.4-29,23.6-32.6,34.8c9.1-11.1,31.6-23.6,33.2-24.2s2.7-1.6,1.3-3.9S393,211.9,393,211.9z"
		/>
	<g>
		<g>
			<defs>
				<path id="SVGID_47_" d="M389.6,209.9c-12.4,1-27.2,26.8-28.4,34.3c8-12.9,26.6-22.4,29-23.7c2.4-1.3,2.7-1.6,1.3-3.9
					S389.6,209.9,389.6,209.9L389.6,209.9z"/>
			</defs>
			<clipPath id="SVGID_48_">
				<use xlink:href="#SVGID_47_"  style="overflow:visible;"/>
			</clipPath>
			<g class="st74">
				<path class="st19" d="M360.3,206h35.1v38.2h-35.1V206z"/>
				<path class="st75" d="M390.2,212.8c1,1.4-1.3,5.8-11.6,13.4c-4.4,3.2-9.9,5.7-15.7,15.6l31.9-20.8L390.2,212.8L390.2,212.8z"/>
			</g>
		</g>
	</g>
	<ellipse class="st76" cx="393.3" cy="162.6" rx="1.8" ry="2.1"/>
	<g>
		<g>
			<defs>
				<path id="SVGID_49_" d="M280.9,393.8v24.5c0,0,1.1,1.8,12.8,1.8s11.7-3.2,11.7-3.2v-22.2C305.4,394.7,290.7,399.5,280.9,393.8
					L280.9,393.8z"/>
			</defs>
			<clipPath id="SVGID_50_">
				<use xlink:href="#SVGID_49_"  style="overflow:visible;"/>
			</clipPath>
			<g class="st77">
				<path class="st25" d="M272.9,384.7h45.2v45.2h-45.2V384.7z"/>
				<path class="st42" d="M294.3,392.6l0.2,33.3c0,0,18.3-2.1,17.6-2.8s-0.7-33.5-0.7-33.5L294.3,392.6z"/>
			</g>
		</g>
	</g>
	<g>
		<g>
			<defs>
				<path id="SVGID_51_" d="M356,198.2c0,0,11.1,1.7,20,0.9c4.2-0.3,8.4-0.9,12.5-1.9c2.8,0.8,4.4,4.9,4.3,8.2
					c0.2,3.3-1.6,6.4-4.5,7.9c0,0-23,6.9-37.4,0.8C343.1,210.9,347.1,197.6,356,198.2L356,198.2z"/>
			</defs>
			<clipPath id="SVGID_52_">
				<use xlink:href="#SVGID_51_"  style="overflow:visible;"/>
			</clipPath>
			<g class="st78">
				<path class="st11" d="M342.8,192.4h61.5v31.4h-61.5V192.4z"/>
				<path class="st79" d="M362.9,198.7c0,0-11,0.8-11.4,8.8s5.8,10,4.3,8.8c0,0-15.8-1.7-14.5-8.4
					C342.6,201.2,351.2,193.8,362.9,198.7L362.9,198.7z"/>
				<path class="st12" d="M372.7,196.7c0,0,13.3,5.2,0.1,22.6l30.1-2.6l-3.5-23.9L372.7,196.7L372.7,196.7z"/>
			</g>
		</g>
	</g>
	<path class="st80" d="M353.4,245.5c0,0-4.7,9.4-4.7,16.7"/>
	<path class="st81" d="M348.2,263.1l-1.4,6.2h2.9l-0.7-6.2H348.2z"/>
</g>
</svg>
